<?xml version="1.0" encoding="UTF-8"?>
<svg width="12px" height="17px" viewBox="0 0 12 17" version="1.1" xmlns="http://www.w3.org/2000/svg" xmlns:xlink="http://www.w3.org/1999/xlink">
    <!-- Generator: Sketch 46.2 (44496) - http://www.bohemiancoding.com/sketch -->
    <title>eur_white_small_icon</title>
    <desc>Created with Sketch.</desc>
    <defs></defs>
    <g id="Page-1" stroke="none" stroke-width="1" fill="none" fill-rule="evenodd">
        <g id="eur_white_small_icon" fill-rule="nonzero" fill="#FFFFFF">
            <path d="M11.5731225,13.9802372 L11.9881423,15.8656126 C12.0118577,15.9604743 12,16.0494071 11.9525692,16.1324111 C11.9051383,16.215415 11.8379447,16.2727273 11.7509881,16.3043478 L11.6916996,16.3162055 C11.6600791,16.3320158 11.6185771,16.3458498 11.5671937,16.3577075 C11.5158103,16.3695652 11.4525692,16.3873518 11.3774704,16.4110672 C11.3023715,16.4347826 11.2173913,16.4565217 11.1225296,16.4762846 C11.027668,16.4960474 10.9268775,16.5158103 10.8201581,16.5355731 C10.7134387,16.555336 10.5948617,16.5750988 10.4644269,16.5948617 C10.3339921,16.6146245 10.201581,16.6324111 10.0671937,16.6482213 C9.93280632,16.6640316 9.78853755,16.6758893 9.63438735,16.6837945 C9.48023715,16.6916996 9.32806324,16.6956522 9.17786561,16.6956522 C7.32806324,16.6956522 5.71146245,16.1798419 4.32806324,15.1482213 C2.94466403,14.1166008 2.00395257,12.7272727 1.50592885,10.9802372 L0.37944664,10.9802372 C0.276679842,10.9802372 0.187747036,10.9426877 0.112648221,10.8675889 C0.0375494071,10.7924901 0,10.7035573 0,10.6007905 L0,9.26086957 C0,9.15810277 0.0375494071,9.06916996 0.112648221,8.99407115 C0.187747036,8.91897233 0.276679842,8.88142292 0.37944664,8.88142292 L1.16205534,8.88142292 C1.14624506,8.43083004 1.15019763,8.01581028 1.17391304,7.63636364 L0.37944664,7.63636364 C0.268774704,7.63636364 0.177865613,7.60079051 0.106719368,7.52964427 C0.0355731225,7.45849802 0,7.36758893 0,7.256917 L0,5.90513834 C0,5.7944664 0.0355731225,5.70355731 0.106719368,5.63241107 C0.177865613,5.56126482 0.268774704,5.5256917 0.37944664,5.5256917 L1.54150198,5.5256917 C2.07114625,3.86561265 3.03359684,2.52964427 4.42885375,1.51778656 C5.82411067,0.505928854 7.40711462,0 9.17786561,0 C9.98418972,0 10.7509881,0.0909090909 11.4782609,0.272727273 C11.5652174,0.296442688 11.6442688,0.355731225 11.715415,0.450592885 C11.7628458,0.537549407 11.7747036,0.632411067 11.7509881,0.735177866 L11.2411067,2.62055336 C11.2173913,2.72332016 11.1620553,2.80039526 11.0750988,2.85177866 C10.9881423,2.90316206 10.8932806,2.91304348 10.7905138,2.88142292 L10.743083,2.86956522 C10.7114625,2.86166008 10.6660079,2.85177866 10.6067194,2.83992095 L10.3992095,2.79841897 L10.1324111,2.756917 L9.82411067,2.72134387 L9.48023715,2.6916996 L9.13043478,2.6798419 C8.13438735,2.6798419 7.24110672,2.93280632 6.45059289,3.43873518 C5.66007905,3.94466403 5.06719368,4.64031621 4.67193676,5.5256917 L10.2213439,5.5256917 C10.3478261,5.5256917 10.4466403,5.57312253 10.5177866,5.66798419 C10.5968379,5.76284585 10.6245059,5.86561265 10.6007905,5.97628458 L10.3162055,7.32806324 C10.2766798,7.53359684 10.1501976,7.63636364 9.93675889,7.63636364 L4.15019763,7.63636364 C4.12648221,7.92885375 4.12648221,8.34387352 4.15019763,8.88142292 L9.59288538,8.88142292 C9.71146245,8.88142292 9.81027668,8.92885375 9.88932806,9.02371542 C9.96047431,9.11857708 9.98418972,9.22529644 9.96047431,9.34387352 L9.67588933,10.6719368 C9.66007905,10.7588933 9.61660079,10.8320158 9.54545455,10.8913043 C9.4743083,10.9505929 9.39525692,10.9802372 9.3083004,10.9802372 L4.71936759,10.9802372 C5.09881423,11.9051383 5.68972332,12.6383399 6.49209486,13.1798419 C7.2944664,13.7213439 8.19762846,13.9920949 9.20158103,13.9920949 C9.34387352,13.9920949 9.48616601,13.986166 9.6284585,13.9743083 C9.77075099,13.9624506 9.90316206,13.9486166 10.0256917,13.9328063 C10.1482213,13.916996 10.2648221,13.8992095 10.3754941,13.8794466 C10.486166,13.8596838 10.583004,13.8399209 10.6660079,13.8201581 C10.7490119,13.8003953 10.8221344,13.7826087 10.8853755,13.7667984 L11.027668,13.7312253 L11.0869565,13.7075099 C11.1897233,13.6679842 11.2924901,13.6758893 11.3952569,13.7312253 C11.4901186,13.7865613 11.5494071,13.8695652 11.5731225,13.9802372 Z" id="Shape"></path>
        </g>
    </g>
</svg>