<?xml version="1.0" encoding="UTF-8"?>
<svg width="49px" height="28px" viewBox="0 0 49 28" version="1.1" xmlns="http://www.w3.org/2000/svg" xmlns:xlink="http://www.w3.org/1999/xlink">
    <!-- Generator: Sketch 46.2 (44496) - http://www.bohemiancoding.com/sketch -->
    <title>email</title>
    <desc>Created with Sketch.</desc>
    <defs></defs>
    <g id="Welcome" stroke="none" stroke-width="1" fill="none" fill-rule="evenodd">
        <g id="Checkout" transform="translate(-227.000000, -1533.000000)" fill-rule="nonzero">
            <g id="email" transform="translate(227.000000, 1533.000000)">
                <path d="M31,27 L18.9631223,27 C16.7799631,27 15,24.953913 15,22.4443478 L15,5.55565217 C15,3.04608696 16.7799631,1 18.9631223,1 L43.0368777,1 C45.2200369,1 47,3.04608696 47,5.55565217 L47,22.4443478 C47,24.953913 45.2200369,27 43.0368777,27 L29.3970498,27" id="XMLID_1220_" fill="#D3EFFF"></path>
                <path d="M19.0247818,28 L43.9752524,28 C46.747527,28 49,25.5058444 49,22.4248287 L49,5.5751713 C49,2.50544135 46.747527,0 43.9752524,0 L19.0247818,0 C16.2525073,0 14.0000343,2.49415558 14.0000343,5.5751713 L14.0000343,22.4361145 C13.9898421,25.5058444 16.2525073,28 19.0247818,28 Z M15.8448199,5.5751713 C15.8448199,3.63401854 17.2717259,2.05401048 19.0247818,2.05401048 L43.9752524,2.05401048 C45.7283084,2.05401048 47.1552144,3.63401854 47.1552144,5.5751713 L47.1552144,22.4361145 C47.1552144,24.3772672 45.7283084,25.9572753 43.9752524,25.9572753 L29.8386909,25.9572753 L19.0247818,25.9572753 C17.2717259,25.9572753 15.8448199,24.3772672 15.8448199,22.4361145 L15.8448199,5.5751713 L15.8448199,5.5751713 Z" id="Shape" fill="#00A0FF"></path>
                <path d="M19.2278769,22.6453362 C19.4086718,22.8741515 19.6597758,23 19.9108798,23 C20.1218072,23 20.3427787,22.9199146 20.5135295,22.7368623 L28.3781073,14.842732 L30.9293241,17.0965634 C31.0900307,17.2452934 31.2909139,17.313938 31.4917971,17.313938 C31.6926803,17.313938 31.8835194,17.2452934 32.0542701,17.0965634 L34.6858402,14.7740874 L42.4700647,22.7254216 C42.6408154,22.9084739 42.861787,22.9885592 43.0727143,22.9885592 C43.3238184,22.9885592 43.5749224,22.8741515 43.7557173,22.6453362 C44.0871746,22.2220277 44.0570421,21.5584632 43.6854081,21.1809178 L36.1522876,13.4812805 L43.6452315,6.85707551 C44.0469979,6.50241169 44.1173071,5.85028788 43.8059381,5.4040979 C43.4945691,4.94646716 42.9220519,4.86638178 42.5303297,5.2210456 L31.4917971,14.9800212 L28.9004036,12.6804267 L28.9004036,12.6804267 L20.4733528,5.23248637 C20.0715864,4.87782255 19.5091134,4.95790793 19.1977444,5.41553867 C18.8863754,5.87316941 18.9566846,6.51385246 19.358451,6.86851628 L26.921704,13.5613659 L19.3182743,21.1923586 C18.9265521,21.5699039 18.8964196,22.2220277 19.2278769,22.6453362 Z" id="Shape" fill="#00A0FF"></path>
                <path d="M12.0920177,15 C12.5909091,15 13,14.5494505 13,14 C13,13.4505495 12.5909091,13 12.0920177,13 L4.90798226,13 C4.40909091,13 4,13.4505495 4,14 C4,14.5494505 4.40909091,15 4.90798226,15 L12.0920177,15 Z" id="Shape" fill="#00A0FF"></path>
                <path d="M0.861878453,10 L11.1381215,10 C11.6116811,10 12,9.54945055 12,9 C12,8.45054945 11.6116811,8 11.1381215,8 L0.861878453,8 C0.388318863,8 0,8.45054945 0,9 C0.00947119179,9.54945055 0.388318863,10 0.861878453,10 Z" id="Shape" fill="#00A0FF"></path>
                <path d="M12,20 C12,19.4505495 11.625,19 11.1676829,19 L6.83231707,19 C6.375,19 6,19.4505495 6,20 C6,20.5494505 6.375,21 6.83231707,21 L11.1676829,21 C11.625,21 12,20.5494505 12,20 Z" id="Shape" fill="#00A0FF"></path>
            </g>
        </g>
    </g>
</svg>