<?xml version="1.0" encoding="UTF-8"?>
<svg width="372px" height="34px" viewBox="0 0 372 34" version="1.1" xmlns="http://www.w3.org/2000/svg" xmlns:xlink="http://www.w3.org/1999/xlink">
    <!-- Generator: Sketch 46.2 (44496) - http://www.bohemiancoding.com/sketch -->
    <title>Group</title>
    <desc>Created with Sketch.</desc>
    <defs></defs>
    <g id="Page-1" stroke="none" stroke-width="1" fill="none" fill-rule="evenodd">
        <g id="Group">
            <g id="Group-9" fill="#FFC314">
                <polygon id="Star" points="18.5 26.1828008 7.06637121 34 11.2277961 21.0777748 1.11022302e-15 12.9868444 14.0055308 12.8176692 18.5 0 22.9944692 12.8176692 37 12.9868444 25.7722039 21.0777748 29.9336288 34"></polygon>
                <polygon id="Star-Copy" points="56.5 26.1828008 45.0663712 34 49.2277961 21.0777748 38 12.9868444 52.0055308 12.8176692 56.5 0 60.9944692 12.8176692 75 12.9868444 63.7722039 21.0777748 67.9336288 34"></polygon>
                <polygon id="Star-Copy-2" points="93.5 26.1828008 82.0663712 34 86.2277961 21.0777748 75 12.9868444 89.0055308 12.8176692 93.5 0 97.9944692 12.8176692 112 12.9868444 100.772204 21.0777748 104.933629 34"></polygon>
                <g id="Group-8" transform="translate(112.000000, 0.000000)">
                    <polygon id="Star-Copy-3" points="18.2086373 25.9036379 6.95508055 33.6374895 11.0509657 20.853042 1.11022302e-16 12.8483777 13.784953 12.6810063 18.2086373 0 22.6323216 12.6810063 36.4172745 12.8483777 25.3663088 20.853042 29.462194 33.6374895"></polygon>
                    <polygon id="Star-Copy-5" points="55.729764 25.9036379 44.4762073 33.6374895 48.5720925 20.853042 37.5211268 12.8483777 51.3060797 12.6810063 55.729764 0 60.1534483 12.6810063 73.9384013 12.8483777 62.8874356 20.853042 66.9833207 33.6374895"></polygon>
                </g>
            </g>
            <polygon id="Star" fill="#E9E9E9" points="204.5 26.1828008 193.066371 34 197.227796 21.0777748 186 12.9868444 200.005531 12.8176692 204.5 0 208.994469 12.8176692 223 12.9868444 211.772204 21.0777748 215.933629 34"></polygon>
            <polygon id="Star-Copy" fill="#E9E9E9" points="242.5 26.1828008 231.066371 34 235.227796 21.0777748 224 12.9868444 238.005531 12.8176692 242.5 0 246.994469 12.8176692 261 12.9868444 249.772204 21.0777748 253.933629 34"></polygon>
            <polygon id="Star-Copy-2" fill="#E9E9E9" points="279.5 26.1828008 268.066371 34 272.227796 21.0777748 261 12.9868444 275.005531 12.8176692 279.5 0 283.994469 12.8176692 298 12.9868444 286.772204 21.0777748 290.933629 34"></polygon>
            <polygon id="Star-Copy-3" fill="#E9E9E9" points="316.208637 25.9036379 304.955081 33.6374895 309.050966 20.853042 298 12.8483777 311.784953 12.6810063 316.208637 0 320.632322 12.6810063 334.417275 12.8483777 323.366309 20.853042 327.462194 33.6374895"></polygon>
            <polygon id="Star-Copy-5" fill="#E9E9E9" points="353.729764 25.9036379 342.476207 33.6374895 346.572092 20.853042 335.521127 12.8483777 349.30608 12.6810063 353.729764 0 358.153448 12.6810063 371.938401 12.8483777 360.887436 20.853042 364.983321 33.6374895"></polygon>
        </g>
    </g>
</svg>