<?xml version="1.0" encoding="UTF-8"?>
<svg width="12px" height="24px" viewBox="0 0 12 24" version="1.1" xmlns="http://www.w3.org/2000/svg" xmlns:xlink="http://www.w3.org/1999/xlink">
    <!-- Generator: Sketch 46.2 (44496) - http://www.bohemiancoding.com/sketch -->
    <title>if_usd_1608712</title>
    <desc>Created with Sketch.</desc>
    <defs></defs>
    <g id="Page-1" stroke="none" stroke-width="1" fill="none" fill-rule="evenodd">
        <g id="if_usd_1608712" fill-rule="nonzero" fill="#FFFFFF">
            <path d="M12,15.2248394 C12,16.5353319 11.5738758,17.6638116 10.7216274,18.6102784 C9.86937901,19.5567452 8.76231263,20.1413276 7.40042827,20.3640257 L7.40042827,22.6124197 C7.40042827,22.732334 7.36188437,22.8308351 7.28479657,22.9079229 C7.20770878,22.9850107 7.10920771,23.0235546 6.98929336,23.0235546 L5.25481799,23.0235546 C5.14346895,23.0235546 5.04710921,22.9828694 4.96573876,22.9014989 C4.88436831,22.8201285 4.84368308,22.7237687 4.84368308,22.6124197 L4.84368308,20.3640257 C4.27837259,20.2869379 3.73233405,20.1541756 3.20556745,19.9657388 C2.67880086,19.7773019 2.24411135,19.5867238 1.90149893,19.3940043 C1.55888651,19.2012848 1.24197002,18.9957173 0.950749465,18.7773019 C0.659528908,18.5588865 0.460385439,18.3982869 0.353319058,18.2955032 C0.246252677,18.1927195 0.17130621,18.1156317 0.128479657,18.0642398 C-0.017130621,17.8843683 -0.0256959315,17.7087794 0.102783726,17.5374732 L1.4261242,15.8029979 C1.48608137,15.7173448 1.58458244,15.6659529 1.72162741,15.6488223 C1.85010707,15.6316916 1.95289079,15.6702355 2.02997859,15.764454 L2.05567452,15.7901499 C3.0235546,16.6381156 4.06423983,17.1734475 5.17773019,17.3961456 C5.49464668,17.4646681 5.81156317,17.4989293 6.12847966,17.4989293 C6.82226981,17.4989293 7.43254818,17.3147752 7.95931478,16.9464668 C8.48608137,16.5781585 8.74946467,16.0556745 8.74946467,15.379015 C8.74946467,15.1391863 8.68522484,14.9122056 8.55674518,14.6980728 C8.42826552,14.48394 8.28479657,14.3040685 8.12633833,14.1584582 C7.96788009,14.012848 7.71734475,13.8522484 7.37473233,13.6766595 C7.03211991,13.5010707 6.74946467,13.3640257 6.5267666,13.2655246 C6.30406852,13.1670236 5.9614561,13.0278373 5.49892934,12.8479657 C5.16488223,12.7109208 4.90149893,12.6038544 4.70877944,12.5267666 C4.51605996,12.4496788 4.25267666,12.3361884 3.91862955,12.1862955 C3.58458244,12.0364026 3.31691649,11.9036403 3.11563169,11.7880086 C2.9143469,11.6723769 2.67237687,11.5203426 2.38972163,11.3319058 C2.10706638,11.143469 1.87794433,10.9614561 1.70235546,10.7858672 C1.5267666,10.6102784 1.34047109,10.4004283 1.14346895,10.1563169 C0.946466809,9.91220557 0.794432548,9.66381156 0.687366167,9.4111349 C0.580299786,9.15845824 0.490364026,8.87366167 0.417558887,8.55674518 C0.344753747,8.23982869 0.308351178,7.90578158 0.308351178,7.55460385 C0.308351178,6.37259101 0.728051392,5.33618844 1.56745182,4.44539615 C2.40685225,3.55460385 3.49892934,2.98072805 4.84368308,2.72376874 L4.84368308,0.411134904 C4.84368308,0.299785867 4.88436831,0.203426124 4.96573876,0.122055675 C5.04710921,0.0406852248 5.14346895,0 5.25481799,0 L6.98929336,0 C7.10920771,0 7.20770878,0.0385438972 7.28479657,0.115631692 C7.36188437,0.192719486 7.40042827,0.291220557 7.40042827,0.411134904 L7.40042827,2.67237687 C7.88865096,2.72376874 8.36188437,2.82226981 8.82012848,2.96788009 C9.27837259,3.11349036 9.6509636,3.25695931 9.9379015,3.39828694 C10.2248394,3.53961456 10.496788,3.70021413 10.7537473,3.88008565 C11.0107066,4.05995717 11.1777302,4.18415418 11.254818,4.25267666 C11.3319058,4.32119914 11.3961456,4.38115632 11.4475375,4.43254818 C11.5931478,4.58672377 11.614561,4.74946467 11.5117773,4.92077088 L10.4710921,6.79657388 C10.4025696,6.92505353 10.3040685,6.99357602 10.1755889,7.00214133 C10.0556745,7.02783726 9.94004283,6.99785867 9.82869379,6.91220557 C9.80299786,6.88650964 9.74089936,6.83511777 9.64239829,6.75802998 C9.54389722,6.68094218 9.37687366,6.56745182 9.14132762,6.41755889 C8.90578158,6.26766595 8.65524625,6.13062099 8.38972163,6.00642398 C8.124197,5.88222698 7.80513919,5.77087794 7.43254818,5.67237687 C7.05995717,5.5738758 6.69379015,5.52462527 6.33404711,5.52462527 C5.52034261,5.52462527 4.85653105,5.70877944 4.34261242,6.07708779 C3.82869379,6.44539615 3.57173448,6.92077088 3.57173448,7.50321199 C3.57173448,7.72591006 3.60813704,7.93147752 3.68094218,8.11991435 C3.75374732,8.30835118 3.88008565,8.48608137 4.05995717,8.65310493 C4.23982869,8.82012848 4.40899358,8.9614561 4.56745182,9.07708779 C4.72591006,9.19271949 4.96573876,9.3254818 5.2869379,9.47537473 C5.60813704,9.62526767 5.86723769,9.74089936 6.06423983,9.82226981 C6.26124197,9.90364026 6.56102784,10.0214133 6.96359743,10.1755889 C7.41755889,10.3468951 7.76445396,10.4817987 8.00428266,10.5802998 C8.24411135,10.6788009 8.56959315,10.8286938 8.98072805,11.0299786 C9.39186296,11.2312634 9.71520343,11.4132762 9.95074946,11.5760171 C10.1862955,11.738758 10.4518201,11.9528908 10.7473233,12.2184154 C11.0428266,12.48394 11.2698073,12.7558887 11.4282655,13.0342612 C11.5867238,13.3126338 11.7216274,13.640257 11.8329764,14.0171306 C11.9443255,14.3940043 12,14.7965739 12,15.2248394 Z" id="Shape"></path>
        </g>
    </g>
</svg>