<svg id="Layer_1" data-name="Layer 1" xmlns="http://www.w3.org/2000/svg" viewBox="0 0 46.4 46.4"><defs><style>.cls-1{fill:#fff;}</style></defs><title>wp</title><path class="cls-1" d="M23.6,0A22.8,22.8,0,0,0,4,34.43l-4,12L13,43A22.8,22.8,0,1,0,23.6,0M37.76,33l-1.41,1.41c-4.46,4.46-9.5,2.26-14-2.2L14.24,24C9.78,19.54,7.58,14.51,12,10.05l1.41-1.41A2.18,2.18,0,0,1,16,8.25c2,1.06,4.27,4.94,4.27,4.94,0.49,0.88.55,1.94-.34,2.44a20.52,20.52,0,0,0-1.73,1.58,3,3,0,0,0,.41,4.19L25,27.77a2.94,2.94,0,0,0,4.2.42,20.52,20.52,0,0,0,1.58-1.73c0.5-.89,1.56-0.84,2.44-0.33,0,0,3.88,2.27,4.93,4.26A2.17,2.17,0,0,1,37.76,33" transform="translate(0 0)"/></svg>