<?xml version="1.0" standalone="no"?>
<!DOCTYPE svg PUBLIC "-//W3C//DTD SVG 20010904//EN"
 "http://www.w3.org/TR/2001/REC-SVG-20010904/DTD/svg10.dtd">
<svg version="1.0" xmlns="http://www.w3.org/2000/svg"
 width="260.000000pt" height="260.000000pt" viewBox="0 0 260.000000 260.000000"
 preserveAspectRatio="xMidYMid meet">
<metadata>
Created by potrace 1.11, written by Peter Selinger 2001-2013
</metadata>
<g transform="translate(0.000000,260.000000) scale(0.100000,-0.100000)"
fill="#000000" stroke="none">
<path d="M0 1300 l0 -1300 1300 0 1300 0 0 1300 0 1300 -1300 0 -1300 0 0
-1300z m2318 988 c23 -23 11 -46 -59 -114 -90 -88 -135 -157 -173 -264 l-31
-85 -1 -330 c0 -326 -1 -331 -27 -430 -15 -55 -51 -147 -79 -205 -46 -92 -64
-117 -148 -200 -74 -75 -115 -106 -190 -147 -169 -91 -318 -133 -480 -133
-112 0 -179 13 -251 49 l-58 29 -88 -44 c-105 -53 -216 -87 -340 -105 -104
-14 -126 -7 -121 40 3 25 7 27 88 37 96 13 179 34 260 65 66 25 130 60 130 71
0 4 -18 35 -39 68 -77 119 -88 185 -31 185 19 0 31 -15 63 -79 24 -48 62 -101
96 -136 48 -49 68 -61 125 -79 97 -30 223 -29 352 4 117 29 292 113 376 180
143 112 234 285 274 515 14 79 15 136 10 340 -9 322 9 422 105 570 22 34 38
64 36 66 -2 2 -50 -19 -106 -48 -110 -55 -136 -57 -136 -7 0 18 13 31 55 56
66 40 50 41 -85 8 -221 -55 -426 -144 -605 -263 -117 -77 -321 -281 -395 -395
-120 -186 -167 -334 -166 -528 0 -126 -8 -147 -48 -134 -28 9 -36 43 -35 155
3 277 122 528 369 775 227 228 502 379 845 464 215 54 478 79 508 49z m-514
-254 c9 -8 16 -21 16 -27 0 -7 -37 -48 -81 -92 -107 -106 -163 -181 -215 -290
-40 -84 -42 -90 -23 -93 11 -2 49 13 85 32 74 41 99 44 115 15 9 -17 7 -25
-12 -45 -32 -34 -114 -72 -189 -87 l-64 -13 -33 -80 c-19 -43 -52 -118 -74
-165 -21 -47 -39 -89 -39 -92 0 -23 134 22 205 69 45 30 57 34 74 24 13 -6 21
-21 21 -36 0 -49 -167 -133 -296 -149 l-51 -6 -48 -92 c-82 -157 -193 -316
-232 -331 -21 -9 -53 12 -53 34 0 10 22 45 50 77 27 32 50 64 50 72 0 8 -13
51 -29 95 -31 83 -61 223 -61 281 0 43 30 71 59 55 12 -6 21 -14 22 -18 14
-160 48 -312 71 -312 5 0 41 65 80 144 l71 145 -21 35 c-41 69 -63 165 -60
257 l3 84 29 3 c38 5 46 -10 46 -88 0 -65 21 -165 38 -182 5 -5 45 73 96 189
l87 197 -16 67 c-22 97 -20 156 5 169 37 20 60 -3 60 -60 0 -28 4 -50 10 -50
5 0 24 21 41 47 63 91 209 233 241 233 4 0 14 -7 22 -16z m-300 -1230 c24 -23
20 -40 -16 -67 -73 -55 -319 -115 -353 -87 -18 15 -19 44 -2 57 6 5 55 17 107
27 57 10 123 31 165 51 84 40 80 39 99 19z"/>
</g>
</svg>
